%TF.GenerationSoftware,KiCad,Pcbnew,9.0.0*%
%TF.CreationDate,2025-08-03T03:58:21+03:00*%
%TF.ProjectId,HOT_AIRGUN_EXTRADOPE-rounded,484f545f-4149-4524-9755-4e5f45585452,rev?*%
%TF.SameCoordinates,Original*%
%TF.FileFunction,Paste,Top*%
%TF.FilePolarity,Positive*%
%FSLAX46Y46*%
G04 Gerber Fmt 4.6, Leading zero omitted, Abs format (unit mm)*
G04 Created by KiCad (PCBNEW 9.0.0) date 2025-08-03 03:58:21*
%MOMM*%
%LPD*%
G01*
G04 APERTURE LIST*
G04 Aperture macros list*
%AMRoundRect*
0 Rectangle with rounded corners*
0 $1 Rounding radius*
0 $2 $3 $4 $5 $6 $7 $8 $9 X,Y pos of 4 corners*
0 Add a 4 corners polygon primitive as box body*
4,1,4,$2,$3,$4,$5,$6,$7,$8,$9,$2,$3,0*
0 Add four circle primitives for the rounded corners*
1,1,$1+$1,$2,$3*
1,1,$1+$1,$4,$5*
1,1,$1+$1,$6,$7*
1,1,$1+$1,$8,$9*
0 Add four rect primitives between the rounded corners*
20,1,$1+$1,$2,$3,$4,$5,0*
20,1,$1+$1,$4,$5,$6,$7,0*
20,1,$1+$1,$6,$7,$8,$9,0*
20,1,$1+$1,$8,$9,$2,$3,0*%
G04 Aperture macros list end*
%ADD10RoundRect,0.250000X-0.625000X0.400000X-0.625000X-0.400000X0.625000X-0.400000X0.625000X0.400000X0*%
%ADD11RoundRect,0.250000X0.650000X-0.412500X0.650000X0.412500X-0.650000X0.412500X-0.650000X-0.412500X0*%
%ADD12RoundRect,0.250000X-0.400000X-0.625000X0.400000X-0.625000X0.400000X0.625000X-0.400000X0.625000X0*%
%ADD13RoundRect,0.250000X-0.650000X0.412500X-0.650000X-0.412500X0.650000X-0.412500X0.650000X0.412500X0*%
%ADD14RoundRect,0.250000X-0.412500X-0.650000X0.412500X-0.650000X0.412500X0.650000X-0.412500X0.650000X0*%
%ADD15RoundRect,0.250000X0.625000X-0.400000X0.625000X0.400000X-0.625000X0.400000X-0.625000X-0.400000X0*%
%ADD16R,1.000000X0.800000*%
%ADD17R,0.600000X1.000000*%
%ADD18RoundRect,0.250001X-0.624999X0.462499X-0.624999X-0.462499X0.624999X-0.462499X0.624999X0.462499X0*%
%ADD19R,2.000000X2.000000*%
%ADD20RoundRect,0.250000X0.400000X0.625000X-0.400000X0.625000X-0.400000X-0.625000X0.400000X-0.625000X0*%
%ADD21R,3.820000X5.820000*%
%ADD22RoundRect,0.375000X-0.375000X0.625000X-0.375000X-0.625000X0.375000X-0.625000X0.375000X0.625000X0*%
%ADD23RoundRect,0.500000X-1.400000X0.500000X-1.400000X-0.500000X1.400000X-0.500000X1.400000X0.500000X0*%
%ADD24R,2.470000X1.510000*%
%ADD25R,1.250000X0.700000*%
%ADD26R,1.150000X0.950000*%
%ADD27R,2.600000X1.420000*%
%ADD28R,0.700000X1.250000*%
%ADD29R,1.740000X1.400000*%
%ADD30O,0.570000X1.950000*%
%ADD31RoundRect,0.250001X-0.462499X-0.624999X0.462499X-0.624999X0.462499X0.624999X-0.462499X0.624999X0*%
%ADD32R,5.000000X5.000000*%
%ADD33R,2.100000X0.950000*%
%ADD34R,0.950000X2.100000*%
%ADD35O,0.590000X2.050000*%
G04 APERTURE END LIST*
D10*
%TO.C,R25*%
X64270000Y7896075D03*
X64270000Y10996075D03*
%TD*%
D11*
%TO.C,C6*%
X65170000Y28258575D03*
X65170000Y25133575D03*
%TD*%
D12*
%TO.C,R11*%
X7300000Y32141075D03*
X4200000Y32141075D03*
%TD*%
D10*
%TO.C,R34*%
X37775000Y3503575D03*
X37775000Y6603575D03*
%TD*%
D13*
%TO.C,C12*%
X43125000Y14441075D03*
X43125000Y17566075D03*
%TD*%
D14*
%TO.C,C5*%
X53212500Y28816075D03*
X50087500Y28816075D03*
%TD*%
D11*
%TO.C,C1*%
X68920000Y28171075D03*
X68920000Y25046075D03*
%TD*%
D12*
%TO.C,R6*%
X38375000Y59716075D03*
X35275000Y59716075D03*
%TD*%
D10*
%TO.C,R8*%
X58130000Y35316075D03*
X58130000Y38416075D03*
%TD*%
D15*
%TO.C,R1*%
X4435000Y26651075D03*
X4435000Y23551075D03*
%TD*%
D16*
%TO.C,Q7*%
X63000000Y47591075D03*
X60700000Y46641075D03*
X60700000Y48541075D03*
%TD*%
D13*
%TO.C,C13*%
X37825000Y20603575D03*
X37825000Y23728575D03*
%TD*%
D17*
%TO.C,U6*%
X76420000Y20321075D03*
X74520000Y20321075D03*
X74520000Y22521075D03*
X75470000Y22521075D03*
X76420000Y22521075D03*
%TD*%
D18*
%TO.C,D9*%
X71750000Y55753575D03*
X71750000Y58728575D03*
%TD*%
D10*
%TO.C,R22*%
X55700000Y45341075D03*
X55700000Y48441075D03*
%TD*%
D19*
%TO.C,D1*%
X56200000Y66341075D03*
X60600000Y66341075D03*
%TD*%
D15*
%TO.C,R9*%
X42675000Y24103575D03*
X42675000Y21003575D03*
%TD*%
D20*
%TO.C,R26*%
X4200000Y34641075D03*
X7300000Y34641075D03*
%TD*%
D13*
%TO.C,C14*%
X40425000Y14391075D03*
X40425000Y17516075D03*
%TD*%
D10*
%TO.C,R4*%
X41250000Y60241075D03*
X41250000Y63341075D03*
%TD*%
%TO.C,R37*%
X50240000Y3296075D03*
X50240000Y6396075D03*
%TD*%
D21*
%TO.C,L1*%
X65245000Y70166075D03*
X75605000Y70166075D03*
%TD*%
D22*
%TO.C,U7*%
X47825000Y25366075D03*
D23*
X50125000Y19066075D03*
D22*
X50125000Y25366075D03*
X52425000Y25366075D03*
%TD*%
D10*
%TO.C,R7*%
X55400000Y35416075D03*
X55400000Y38516075D03*
%TD*%
D24*
%TO.C,D3*%
X20510000Y79341075D03*
X20510000Y74241075D03*
X11690000Y74241075D03*
X11690000Y79341075D03*
%TD*%
D10*
%TO.C,R23*%
X58300000Y45341075D03*
X58300000Y48441075D03*
%TD*%
D25*
%TO.C,U3*%
X31365000Y40356075D03*
X33365000Y41306075D03*
X33365000Y39406075D03*
%TD*%
D11*
%TO.C,C9*%
X35000000Y6666075D03*
X35000000Y3541075D03*
%TD*%
D15*
%TO.C,R38*%
X65300000Y35591075D03*
X65300000Y32491075D03*
%TD*%
D26*
%TO.C,D5*%
X68150000Y58981075D03*
X68150000Y55601075D03*
%TD*%
D16*
%TO.C,Q9*%
X62650000Y58291075D03*
X60350000Y57341075D03*
X60350000Y59241075D03*
%TD*%
D27*
%TO.C,U1*%
X38390000Y79801075D03*
X38390000Y77261075D03*
X29490000Y77261075D03*
X29490000Y79801075D03*
%TD*%
D10*
%TO.C,R27*%
X55380000Y55711075D03*
X55380000Y58811075D03*
%TD*%
D11*
%TO.C,C8*%
X44050000Y6541075D03*
X44050000Y3416075D03*
%TD*%
D10*
%TO.C,R12*%
X61745000Y7896075D03*
X61745000Y10996075D03*
%TD*%
D12*
%TO.C,R5*%
X38375000Y62516075D03*
X35275000Y62516075D03*
%TD*%
D10*
%TO.C,R28*%
X57980000Y55711075D03*
X57980000Y58811075D03*
%TD*%
D28*
%TO.C,Q5*%
X44450000Y47741075D03*
X45400000Y45741075D03*
X43500000Y45741075D03*
%TD*%
D12*
%TO.C,R21*%
X72870000Y19346075D03*
X69770000Y19346075D03*
%TD*%
D10*
%TO.C,R3*%
X40550000Y43841075D03*
X40550000Y46941075D03*
%TD*%
D29*
%TO.C,SW1*%
X42370000Y10328575D03*
X35030000Y10328575D03*
%TD*%
D30*
%TO.C,U5*%
X60645005Y70031075D03*
X59365005Y70031075D03*
X58105005Y70031075D03*
X56835005Y70031075D03*
X56835005Y75451075D03*
X58105005Y75451075D03*
X59365005Y75451075D03*
X60645005Y75451075D03*
%TD*%
D26*
%TO.C,D4*%
X68200000Y48481075D03*
X68200000Y45101075D03*
%TD*%
D16*
%TO.C,Q8*%
X63075000Y37441075D03*
X60775000Y36491075D03*
X60775000Y38391075D03*
%TD*%
D15*
%TO.C,R17*%
X73895000Y28146075D03*
X73895000Y25046075D03*
%TD*%
D29*
%TO.C,SW2*%
X53110000Y10296075D03*
X45770000Y10296075D03*
%TD*%
D20*
%TO.C,R39*%
X4200000Y29591075D03*
X7300000Y29591075D03*
%TD*%
D13*
%TO.C,C17*%
X33600000Y76716075D03*
X33600000Y79841075D03*
%TD*%
D15*
%TO.C,R40*%
X65600000Y45341075D03*
X65600000Y42241075D03*
%TD*%
D17*
%TO.C,U8*%
X64535000Y20296075D03*
X62635000Y20296075D03*
X62635000Y22496075D03*
X63585000Y22496075D03*
X64535000Y22496075D03*
%TD*%
D12*
%TO.C,R20*%
X60770000Y19121075D03*
X57670000Y19121075D03*
%TD*%
D13*
%TO.C,C11*%
X37875000Y14391075D03*
X37875000Y17516075D03*
%TD*%
D11*
%TO.C,C2*%
X57770000Y28233575D03*
X57770000Y25108575D03*
%TD*%
%TO.C,C10*%
X47540000Y6396075D03*
X47540000Y3271075D03*
%TD*%
D31*
%TO.C,D7*%
X7187500Y37191075D03*
X4212500Y37191075D03*
%TD*%
D15*
%TO.C,R19*%
X68670000Y11071075D03*
X68670000Y7971075D03*
%TD*%
%TO.C,R2*%
X7035000Y26701075D03*
X7035000Y23601075D03*
%TD*%
%TO.C,R14*%
X62695000Y28271075D03*
X62695000Y25171075D03*
%TD*%
D32*
%TO.C,U2*%
X21620000Y15946075D03*
D33*
X11600000Y8396075D03*
X11600000Y9666075D03*
X11600000Y10936075D03*
X11600000Y12206075D03*
X11600000Y13476075D03*
X11600000Y14746075D03*
X11600000Y16016075D03*
X11600000Y17286075D03*
X11600000Y18556075D03*
X11600000Y19826075D03*
X11600000Y21096075D03*
X11600000Y22366075D03*
X11600000Y23636075D03*
X11600000Y24906075D03*
D34*
X14880000Y26426075D03*
X16150000Y26426075D03*
X17420000Y26426075D03*
X18690000Y26426075D03*
X19960000Y26426075D03*
X21230000Y26436075D03*
X22500000Y26436075D03*
X23770000Y26436075D03*
X25040000Y26436075D03*
X26310000Y26436075D03*
D33*
X29600000Y24906075D03*
X29600000Y23636075D03*
X29600000Y22366075D03*
X29600000Y21096075D03*
X29600000Y19826075D03*
X29600000Y18556075D03*
X29600000Y17286075D03*
X29600000Y16016075D03*
X29600000Y14746075D03*
X29600000Y13476075D03*
X29600000Y12206075D03*
X29600000Y10936075D03*
X29600000Y9666075D03*
X29600000Y8396075D03*
%TD*%
D35*
%TO.C,U4*%
X33390000Y31456075D03*
X32110000Y31456075D03*
X30850000Y31456075D03*
X29580000Y31456075D03*
X29580000Y36996075D03*
X30850000Y36996075D03*
X32110000Y36996075D03*
X33390000Y36996075D03*
%TD*%
D18*
%TO.C,D8*%
X71425000Y45428575D03*
X71425000Y48403575D03*
%TD*%
D13*
%TO.C,C15*%
X35175000Y20603575D03*
X35175000Y23728575D03*
%TD*%
D10*
%TO.C,R24*%
X73745000Y7971075D03*
X73745000Y11071075D03*
%TD*%
D15*
%TO.C,R41*%
X64950000Y55991075D03*
X64950000Y52891075D03*
%TD*%
D11*
%TO.C,C7*%
X76945000Y28146075D03*
X76945000Y25021075D03*
%TD*%
D15*
%TO.C,R15*%
X60245000Y28246075D03*
X60245000Y25146075D03*
%TD*%
D10*
%TO.C,R36*%
X53140000Y3271075D03*
X53140000Y6371075D03*
%TD*%
%TO.C,R35*%
X40500000Y3503575D03*
X40500000Y6603575D03*
%TD*%
%TO.C,R31*%
X27765000Y39406075D03*
X27765000Y42506075D03*
%TD*%
D26*
%TO.C,D2*%
X68100000Y38281075D03*
X68100000Y34901075D03*
%TD*%
D28*
%TO.C,Q6*%
X44550000Y64491075D03*
X45500000Y62491075D03*
X43600000Y62491075D03*
%TD*%
D18*
%TO.C,D6*%
X71500000Y35291075D03*
X71500000Y38266075D03*
%TD*%
D15*
%TO.C,R18*%
X71420000Y28146075D03*
X71420000Y25046075D03*
%TD*%
D10*
%TO.C,R16*%
X71195000Y7946075D03*
X71195000Y11046075D03*
%TD*%
D14*
%TO.C,C4*%
X55262500Y62991075D03*
X52137500Y62991075D03*
%TD*%
D15*
%TO.C,R10*%
X59245000Y11021075D03*
X59245000Y7921075D03*
%TD*%
D13*
%TO.C,C3*%
X45000000Y80937500D03*
X45000000Y84062500D03*
%TD*%
M02*
