M48
; DRILL file {KiCad 9.0.0} date 2025-08-03T03:58:21+0300
; FORMAT={-:-/ absolute / inch / decimal}
; #@! TF.CreationDate,2025-08-03T03:58:21+03:00
; #@! TF.GenerationSoftware,Kicad,Pcbnew,9.0.0
; #@! TF.FileFunction,Plated,1,2,PTH
FMAT,2
INCH
; #@! TA.AperFunction,Plated,PTH,ViaDrill
T1C0.0118
; #@! TA.AperFunction,Plated,PTH,ComponentDrill
T2C0.0197
; #@! TA.AperFunction,Plated,PTH,ViaDrill
T3C0.0236
; #@! TA.AperFunction,Plated,PTH,ComponentDrill
T4C0.0300
; #@! TA.AperFunction,Plated,PTH,ComponentDrill
T5C0.0315
; #@! TA.AperFunction,Plated,PTH,ComponentDrill
T6C0.0354
; #@! TA.AperFunction,Plated,PTH,ComponentDrill
T7C0.0394
; #@! TA.AperFunction,Plated,PTH,ComponentDrill
T8C0.0394
; #@! TA.AperFunction,Plated,PTH,ComponentDrill
T9C0.0433
; #@! TA.AperFunction,Plated,PTH,ComponentDrill
T10C0.0433
; #@! TA.AperFunction,Plated,PTH,ComponentDrill
T11C0.0472
; #@! TA.AperFunction,Plated,PTH,ComponentDrill
T12C0.1260
%
G90
G05
T1
X0.0598Y1.3874
X0.0807Y0.9595
X0.0835Y1.6363
X0.0858Y1.0811
X0.089Y1.7346
X0.0894Y0.5355
X0.0921Y1.5465
X0.0953Y1.848
X0.1657Y1.7607
X0.2713Y1.6705
X0.2839Y0.2665
X0.3126Y0.6296
X0.3142Y1.7992
X0.3307Y0.1756
X0.3311Y1.6201
X0.3319Y0.9676
X0.3528Y0.2977
X0.3835Y1.2205
X0.3957Y0.8359
X0.3996Y0.8796
X0.4004Y0.9304
X0.4122Y1.0996
X0.5215Y0.5806
X0.5787Y0.4528
X0.6362Y0.528
X0.6654Y0.9016
X0.7331Y0.4158
X0.7717Y0.5827
X0.7764Y0.7048
X0.8142Y1.4886
X0.8268Y0.8898
X0.8295Y1.4488
X0.8382Y1.563
X0.8465Y0.7835
X0.9118Y1.7031
X0.9256Y0.7012
X0.9331Y0.5815
X0.9449Y0.9016
X0.9583Y0.413
X0.9831Y1.1107
X0.9843Y0.978
X0.9917Y1.1821
X0.9953Y1.1461
X0.9969Y1.7008
X1.028Y0.4701
X1.1299Y1.8327
X1.1575Y1.0236
X1.2244Y0.9331
X1.2244Y0.8796
X1.2244Y0.4308
X1.2248Y1.8421
X1.2283Y0.7795
X1.2559Y0.8307
X1.2626Y0.1379
X1.315Y0.3825
X1.378Y0.189
X1.385Y0.4882
X1.4083Y3.1894
X1.4083Y1.8252
X1.4296Y0.6379
X1.4365Y0.6896
X1.5268Y0.4138
X1.5898Y2.7831
X1.6079Y2.9528
X1.6118Y2.2811
X1.6563Y3.1319
X1.6801Y1.727
X1.7057Y2.3717
X1.7173Y3.0634
X1.7252Y0.4863
X1.7528Y2.2854
X1.7831Y1.1327
X1.8114Y3.4146
X1.8122Y2.6457
X1.8193Y3.0197
X1.8217Y1.0406
X1.8803Y1.9056
X1.9181Y3.4256
X1.9252Y0.1303
X1.9256Y1.8213
X1.9256Y1.4315
X1.9268Y1.0882
X1.9492Y0.411
X1.9638Y1.727
X1.9724Y1.2083
X1.9724Y0.6378
X1.9734Y1.3451
X1.9736Y1.5933
X2.0028Y1.4626
X2.0362Y0.0784
X2.0386Y0.6394
X2.0417Y3.3802
X2.0502Y2.3707
X2.0823Y3.4398
X2.1157Y2.2465
X2.128Y1.7618
X2.1319Y0.6965
X2.1555Y0.3303
X2.1811Y2.1457
X2.1811Y1.3465
X2.1885Y3.3802
X2.2087Y3.4331
X2.2657Y0.3732
X2.3484Y3.4307
X2.3606Y2.0036
X2.3646Y1.7555
X2.3669Y2.4697
X2.3772Y1.3831
X2.4083Y3.4331
X2.4094Y0.9233
X2.415Y2.1984
X2.4201Y1.5906
X2.4402Y1.7481
X2.4449Y0.6965
X2.4768Y2.4232
X2.487Y1.8004
X2.4932Y2.5515
X2.5043Y1.2059
X2.5174Y3.4099
X2.5319Y0.2205
X2.5689Y0.5197
X2.5856Y0.6195
X2.6012Y3.4122
X2.6035Y2.463
X2.627Y3.3059
X2.7039Y0.6205
X2.7055Y3.398
X2.7083Y2.0004
X2.7157Y1.589
X2.7528Y3.0933
X2.7618Y3.3067
X2.772Y0.5079
X2.7744Y2.7489
X2.7811Y2.6039
X2.7854Y1.2045
X2.7961Y2.4716
X2.8374Y3.4193
X2.8531Y0.2157
X2.8574Y2.531
X2.8815Y0.9248
X2.9091Y1.3929
X2.9173Y0.6965
X2.924Y2.2362
X2.9291Y1.8256
X2.9366Y2.463
X2.9615Y3.0569
X2.989Y1.1878
X3.0315Y3.1157
X3.0527Y0.3601
X3.0571Y0.5117
X3.06Y2.4901
X3.065Y0.6622
X3.0692Y3.0531
X3.0692Y2.9714
X3.0874Y1.4335
X3.1008Y2.8692
X3.1064Y2.8004
X3.1064Y2.7168
X3.1064Y2.6276
T2
X0.0551Y0.1496
X0.0828Y0.2164
X0.0828Y0.0828
X0.1496Y0.2441
X0.1496Y0.0551
X0.2164Y0.2164
X0.2164Y0.0828
X0.2441Y0.1496
X2.8976Y3.3543
X2.8976Y0.1496
X2.9253Y3.4211
X2.9253Y3.2875
X2.9253Y0.2164
X2.9253Y0.0828
X2.9921Y3.4488
X2.9921Y3.2598
X2.9921Y0.2441
X2.9921Y0.0551
X3.0589Y3.4211
X3.0589Y3.2875
X3.0589Y0.2164
X3.0589Y0.0828
X3.0866Y3.3543
X3.0866Y0.1496
T3
X0.748Y2.7402
X0.748Y2.6693
X0.748Y2.5827
X0.748Y2.4961
X0.748Y2.2402
X0.748Y2.1693
X0.748Y2.0827
X0.748Y1.9961
X0.8614Y2.7402
X0.8614Y2.6693
X0.8614Y2.5827
X0.8614Y2.4961
X0.8614Y2.2402
X0.8614Y2.1693
X0.8614Y2.0827
X0.8614Y1.9961
X0.9724Y2.7402
X0.9724Y2.6693
X0.9724Y2.5827
X0.9724Y2.4961
X0.9724Y2.2402
X0.9724Y2.1693
X0.9724Y2.0827
X0.9724Y1.9961
T4
X1.4852Y1.238
X1.4858Y1.5258
X1.5852Y1.238
X1.5858Y1.5258
X1.6852Y1.238
X1.6858Y1.5258
X2.2955Y0.617
X2.3955Y0.617
X2.4955Y0.617
X2.7669Y0.614
X2.8669Y0.614
X2.9669Y0.614
T5
X1.5801Y1.0614
X1.6801Y1.0614
T6
X2.8524Y3.1857
X2.8524Y3.1069
T7
X1.3874Y2.1843
X1.3874Y2.0843
X1.3874Y1.9843
X1.3894Y2.83
X1.3894Y2.73
X1.3894Y2.63
X1.6874Y2.1843
X1.6874Y2.0843
X1.6874Y1.9843
X1.6894Y2.83
X1.6894Y2.73
X1.6894Y2.63
X1.9528Y3.2559
X2.1496Y3.2559
T8
X0.1949Y0.7589
X0.1949Y0.6589
X0.1949Y0.5589
X0.1949Y0.4589
X0.1949Y0.3589
X0.3819Y1.3638
X0.4087Y1.7611
X0.4087Y1.6611
X0.5087Y1.7611
X0.5087Y1.6611
X0.6087Y1.7611
X0.6087Y1.6611
X0.6917Y1.3579
X0.6917Y1.2579
X0.7087Y1.7611
X0.7087Y1.6611
X0.7917Y1.3579
X0.7917Y1.2579
X0.8087Y1.7611
X0.8087Y1.6611
X0.8917Y1.3579
X0.8917Y1.2579
X1.2344Y1.7061
X1.3514Y1.0602
X1.4012Y1.703
X1.4744Y1.0602
X2.2872Y0.8768
X2.7469Y0.8739
T9
X0.1614Y3.3307
X0.3425Y3.3307
X0.498Y2.7067
X0.498Y2.6067
X0.498Y2.5067
X0.5035Y2.226
X0.5035Y2.126
X0.5035Y2.026
X0.5236Y3.3307
X0.7047Y3.3307
X2.4813Y3.1965
X2.6624Y3.1965
T10
X0.1445Y2.2335
X0.1445Y2.0957
X0.1469Y2.6933
X0.1469Y2.5556
X2.2763Y0.1366
X2.4141Y0.1366
X2.6385Y0.1375
X2.7763Y0.1375
X3.0127Y1.9023
X3.0127Y1.7645
X3.0134Y1.5099
X3.0134Y1.3721
X3.0206Y2.2874
X3.0206Y2.1496
T11
X0.8654Y3.3311
X1.4654Y3.3311
T12
X0.1496Y0.1496
X2.9921Y3.3543
X2.9921Y0.1496
M30
