%TF.GenerationSoftware,KiCad,Pcbnew,9.0.0*%
%TF.CreationDate,2025-08-03T03:58:21+03:00*%
%TF.ProjectId,HOT_AIRGUN_EXTRADOPE-rounded,484f545f-4149-4524-9755-4e5f45585452,rev?*%
%TF.SameCoordinates,Original*%
%TF.FileFunction,Soldermask,Top*%
%TF.FilePolarity,Negative*%
%FSLAX46Y46*%
G04 Gerber Fmt 4.6, Leading zero omitted, Abs format (unit mm)*
G04 Created by KiCad (PCBNEW 9.0.0) date 2025-08-03 03:58:21*
%MOMM*%
%LPD*%
G01*
G04 APERTURE LIST*
G04 Aperture macros list*
%AMRoundRect*
0 Rectangle with rounded corners*
0 $1 Rounding radius*
0 $2 $3 $4 $5 $6 $7 $8 $9 X,Y pos of 4 corners*
0 Add a 4 corners polygon primitive as box body*
4,1,4,$2,$3,$4,$5,$6,$7,$8,$9,$2,$3,0*
0 Add four circle primitives for the rounded corners*
1,1,$1+$1,$2,$3*
1,1,$1+$1,$4,$5*
1,1,$1+$1,$6,$7*
1,1,$1+$1,$8,$9*
0 Add four rect primitives between the rounded corners*
20,1,$1+$1,$2,$3,$4,$5,0*
20,1,$1+$1,$4,$5,$6,$7,0*
20,1,$1+$1,$6,$7,$8,$9,0*
20,1,$1+$1,$8,$9,$2,$3,0*%
G04 Aperture macros list end*
%ADD10RoundRect,0.250001X-0.799999X-0.799999X0.799999X-0.799999X0.799999X0.799999X-0.799999X0.799999X0*%
%ADD11C,2.100000*%
%ADD12C,1.600000*%
%ADD13RoundRect,0.250000X-0.625000X0.400000X-0.625000X-0.400000X0.625000X-0.400000X0.625000X0.400000X0*%
%ADD14C,1.520000*%
%ADD15RoundRect,0.250000X0.650000X-0.412500X0.650000X0.412500X-0.650000X0.412500X-0.650000X-0.412500X0*%
%ADD16RoundRect,0.250000X-0.400000X-0.625000X0.400000X-0.625000X0.400000X0.625000X-0.400000X0.625000X0*%
%ADD17R,2.000000X2.000000*%
%ADD18RoundRect,0.250000X-0.650000X0.412500X-0.650000X-0.412500X0.650000X-0.412500X0.650000X0.412500X0*%
%ADD19RoundRect,0.250000X-0.412500X-0.650000X0.412500X-0.650000X0.412500X0.650000X-0.412500X0.650000X0*%
%ADD20C,1.800000*%
%ADD21C,0.800000*%
%ADD22C,6.400000*%
%ADD23RoundRect,0.250000X0.625000X-0.400000X0.625000X0.400000X-0.625000X0.400000X-0.625000X-0.400000X0*%
%ADD24R,1.000000X0.800000*%
%ADD25R,0.600000X1.000000*%
%ADD26RoundRect,0.250001X-0.624999X0.462499X-0.624999X-0.462499X0.624999X-0.462499X0.624999X0.462499X0*%
%ADD27O,2.000000X1.905000*%
%ADD28R,2.000000X1.905000*%
%ADD29O,1.700000X1.700000*%
%ADD30R,1.700000X1.700000*%
%ADD31RoundRect,0.250000X0.400000X0.625000X-0.400000X0.625000X-0.400000X-0.625000X0.400000X-0.625000X0*%
%ADD32R,3.820000X5.820000*%
%ADD33RoundRect,0.375000X-0.375000X0.625000X-0.375000X-0.625000X0.375000X-0.625000X0.375000X0.625000X0*%
%ADD34RoundRect,0.500000X-1.400000X0.500000X-1.400000X-0.500000X1.400000X-0.500000X1.400000X0.500000X0*%
%ADD35R,2.470000X1.510000*%
%ADD36R,1.250000X0.700000*%
%ADD37R,1.150000X0.950000*%
%ADD38R,2.600000X1.420000*%
%ADD39R,0.700000X1.250000*%
%ADD40R,1.800000X1.800000*%
%ADD41R,1.740000X1.400000*%
%ADD42O,0.570000X1.950000*%
%ADD43C,1.700000*%
%ADD44RoundRect,0.250000X-0.600000X0.600000X-0.600000X-0.600000X0.600000X-0.600000X0.600000X0.600000X0*%
%ADD45RoundRect,0.250001X-0.462499X-0.624999X0.462499X-0.624999X0.462499X0.624999X-0.462499X0.624999X0*%
%ADD46R,5.000000X5.000000*%
%ADD47R,2.100000X0.950000*%
%ADD48R,0.950000X2.100000*%
%ADD49O,0.590000X2.050000*%
%ADD50O,2.400000X2.400000*%
%ADD51C,2.400000*%
%ADD52O,1.600000X1.600000*%
G04 APERTURE END LIST*
D10*
%TO.C,J5*%
X4100000Y84600000D03*
D11*
X8700000Y84600000D03*
X13300000Y84600000D03*
X17900000Y84600000D03*
%TD*%
D12*
%TO.C,C16*%
X54600000Y82700000D03*
X49600000Y82700000D03*
%TD*%
D13*
%TO.C,R25*%
X64270000Y7896075D03*
X64270000Y10996075D03*
%TD*%
D14*
%TO.C,R33*%
X42805000Y31446075D03*
X40265000Y31446075D03*
X37725000Y31446075D03*
%TD*%
D15*
%TO.C,C6*%
X65170000Y28258575D03*
X65170000Y25133575D03*
%TD*%
D16*
%TO.C,R11*%
X7300000Y32141075D03*
X4200000Y32141075D03*
%TD*%
D17*
%TO.C,TP7*%
X34325000Y26928575D03*
%TD*%
D13*
%TO.C,R34*%
X37775000Y3503575D03*
X37775000Y6603575D03*
%TD*%
D18*
%TO.C,C12*%
X43125000Y14441075D03*
X43125000Y17566075D03*
%TD*%
D19*
%TO.C,C5*%
X53212500Y28816075D03*
X50087500Y28816075D03*
%TD*%
D15*
%TO.C,C1*%
X68920000Y28171075D03*
X68920000Y25046075D03*
%TD*%
D20*
%TO.C,U14*%
X61317500Y3468575D03*
X57817500Y3468575D03*
%TD*%
D21*
%TO.C,H1*%
X78400000Y85200000D03*
X77697056Y83502944D03*
X77697056Y86897056D03*
X76000000Y82800000D03*
D22*
X76000000Y85200000D03*
D21*
X76000000Y87600000D03*
X74302944Y83502944D03*
X74302944Y86897056D03*
X73600000Y85200000D03*
%TD*%
D16*
%TO.C,R6*%
X38375000Y59716075D03*
X35275000Y59716075D03*
%TD*%
D13*
%TO.C,R8*%
X58130000Y35316075D03*
X58130000Y38416075D03*
%TD*%
D17*
%TO.C,TP9*%
X9700000Y34641075D03*
%TD*%
%TO.C,TP1*%
X35590000Y43256075D03*
%TD*%
D23*
%TO.C,R1*%
X4435000Y26651075D03*
X4435000Y23551075D03*
%TD*%
D24*
%TO.C,Q7*%
X63000000Y47591075D03*
X60700000Y46641075D03*
X60700000Y48541075D03*
%TD*%
D17*
%TO.C,TP10*%
X31355000Y43336075D03*
%TD*%
D18*
%TO.C,C13*%
X37825000Y20603575D03*
X37825000Y23728575D03*
%TD*%
D25*
%TO.C,U6*%
X76420000Y20321075D03*
X74520000Y20321075D03*
X74520000Y22521075D03*
X75470000Y22521075D03*
X76420000Y22521075D03*
%TD*%
D26*
%TO.C,D9*%
X71750000Y55753575D03*
X71750000Y58728575D03*
%TD*%
D27*
%TO.C,Q3*%
X12650000Y63671075D03*
X12650000Y66211075D03*
D28*
X12650000Y68751075D03*
%TD*%
D29*
%TO.C,J6*%
X4950000Y19276075D03*
X4950000Y16736075D03*
X4950000Y14196075D03*
X4950000Y11656075D03*
D30*
X4950000Y9116075D03*
%TD*%
D13*
%TO.C,R22*%
X55700000Y45341075D03*
X55700000Y48441075D03*
%TD*%
D17*
%TO.C,D1*%
X56200000Y66341075D03*
X60600000Y66341075D03*
%TD*%
D23*
%TO.C,R9*%
X42675000Y24103575D03*
X42675000Y21003575D03*
%TD*%
D14*
%TO.C,R32*%
X42820000Y38756075D03*
X40280000Y38756075D03*
X37740000Y38756075D03*
%TD*%
%TO.C,R29*%
X58305000Y15671075D03*
X60845000Y15671075D03*
X63385000Y15671075D03*
%TD*%
D31*
%TO.C,R26*%
X4200000Y34641075D03*
X7300000Y34641075D03*
%TD*%
D18*
%TO.C,C14*%
X40425000Y14391075D03*
X40425000Y17516075D03*
%TD*%
D20*
%TO.C,U15*%
X70517500Y3493575D03*
X67017500Y3493575D03*
%TD*%
D13*
%TO.C,R4*%
X41250000Y60241075D03*
X41250000Y63341075D03*
%TD*%
%TO.C,R37*%
X50240000Y3296075D03*
X50240000Y6396075D03*
%TD*%
D11*
%TO.C,J7*%
X67625000Y81191075D03*
D10*
X63025000Y81191075D03*
%TD*%
D32*
%TO.C,L1*%
X65245000Y70166075D03*
X75605000Y70166075D03*
%TD*%
D17*
%TO.C,TP8*%
X37450000Y26928575D03*
%TD*%
D33*
%TO.C,U7*%
X47825000Y25366075D03*
D34*
X50125000Y19066075D03*
D33*
X50125000Y25366075D03*
X52425000Y25366075D03*
%TD*%
D13*
%TO.C,R7*%
X55400000Y35416075D03*
X55400000Y38516075D03*
%TD*%
D35*
%TO.C,D3*%
X20510000Y79341075D03*
X20510000Y74241075D03*
X11690000Y74241075D03*
X11690000Y79341075D03*
%TD*%
D13*
%TO.C,R23*%
X58300000Y45341075D03*
X58300000Y48441075D03*
%TD*%
D36*
%TO.C,U3*%
X31365000Y40356075D03*
X33365000Y41306075D03*
X33365000Y39406075D03*
%TD*%
D15*
%TO.C,C9*%
X35000000Y6666075D03*
X35000000Y3541075D03*
%TD*%
D20*
%TO.C,U10*%
X76522500Y48318575D03*
X76522500Y44818575D03*
%TD*%
D23*
%TO.C,R38*%
X65300000Y35591075D03*
X65300000Y32491075D03*
%TD*%
D37*
%TO.C,D5*%
X68150000Y58981075D03*
X68150000Y55601075D03*
%TD*%
D24*
%TO.C,Q9*%
X62650000Y58291075D03*
X60350000Y57341075D03*
X60350000Y59241075D03*
%TD*%
D38*
%TO.C,U1*%
X38390000Y79801075D03*
X38390000Y77261075D03*
X29490000Y77261075D03*
X29490000Y79801075D03*
%TD*%
D20*
%TO.C,U12*%
X3730000Y64911075D03*
X3730000Y68411075D03*
%TD*%
D13*
%TO.C,R27*%
X55380000Y55711075D03*
X55380000Y58811075D03*
%TD*%
D15*
%TO.C,C8*%
X44050000Y6541075D03*
X44050000Y3416075D03*
%TD*%
D13*
%TO.C,R12*%
X61745000Y7896075D03*
X61745000Y10996075D03*
%TD*%
D20*
%TO.C,U9*%
X76722500Y58101075D03*
X76722500Y54601075D03*
%TD*%
D16*
%TO.C,R5*%
X38375000Y62516075D03*
X35275000Y62516075D03*
%TD*%
D20*
%TO.C,U11*%
X76540000Y38351075D03*
X76540000Y34851075D03*
%TD*%
D17*
%TO.C,TP4*%
X58095000Y22271075D03*
%TD*%
D13*
%TO.C,R28*%
X57980000Y55711075D03*
X57980000Y58811075D03*
%TD*%
D39*
%TO.C,Q5*%
X44450000Y47741075D03*
X45400000Y45741075D03*
X43500000Y45741075D03*
%TD*%
D16*
%TO.C,R21*%
X72870000Y19346075D03*
X69770000Y19346075D03*
%TD*%
D20*
%TO.C,T1*%
X35290000Y66801075D03*
X35290000Y69341075D03*
X35290000Y71881075D03*
X42910000Y71881075D03*
X42910000Y69341075D03*
D40*
X42910000Y66801075D03*
%TD*%
D13*
%TO.C,R3*%
X40550000Y43841075D03*
X40550000Y46941075D03*
%TD*%
D41*
%TO.C,SW1*%
X42370000Y10328575D03*
X35030000Y10328575D03*
%TD*%
D21*
%TO.C,H3*%
X6200000Y3800000D03*
X5497056Y2102944D03*
X5497056Y5497056D03*
X3800000Y1400000D03*
D22*
X3800000Y3800000D03*
D21*
X3800000Y6200000D03*
X2102944Y2102944D03*
X2102944Y5497056D03*
X1400000Y3800000D03*
%TD*%
D42*
%TO.C,U5*%
X60645005Y70031075D03*
X59365005Y70031075D03*
X58105005Y70031075D03*
X56835005Y70031075D03*
X56835005Y75451075D03*
X58105005Y75451075D03*
X59365005Y75451075D03*
X60645005Y75451075D03*
%TD*%
D37*
%TO.C,D4*%
X68200000Y48481075D03*
X68200000Y45101075D03*
%TD*%
D12*
%TO.C,C18*%
X72450000Y80916075D03*
X72450000Y78916075D03*
%TD*%
D24*
%TO.C,Q8*%
X63075000Y37441075D03*
X60775000Y36491075D03*
X60775000Y38391075D03*
%TD*%
D23*
%TO.C,R17*%
X73895000Y28146075D03*
X73895000Y25046075D03*
%TD*%
D41*
%TO.C,SW2*%
X53110000Y10296075D03*
X45770000Y10296075D03*
%TD*%
D43*
%TO.C,J8*%
X10380000Y42191075D03*
X10380000Y44731075D03*
X12920000Y42191075D03*
X12920000Y44731075D03*
X15460000Y42191075D03*
X15460000Y44731075D03*
X18000000Y42191075D03*
X18000000Y44731075D03*
X20540000Y42191075D03*
D44*
X20540000Y44731075D03*
%TD*%
D31*
%TO.C,R39*%
X4200000Y29591075D03*
X7300000Y29591075D03*
%TD*%
D18*
%TO.C,C17*%
X33600000Y76716075D03*
X33600000Y79841075D03*
%TD*%
D23*
%TO.C,R40*%
X65600000Y45341075D03*
X65600000Y42241075D03*
%TD*%
D25*
%TO.C,U8*%
X64535000Y20296075D03*
X62635000Y20296075D03*
X62635000Y22496075D03*
X63585000Y22496075D03*
X64535000Y22496075D03*
%TD*%
D16*
%TO.C,R20*%
X60770000Y19121075D03*
X57670000Y19121075D03*
%TD*%
D18*
%TO.C,C11*%
X37875000Y14391075D03*
X37875000Y17516075D03*
%TD*%
D15*
%TO.C,C2*%
X57770000Y28233575D03*
X57770000Y25108575D03*
%TD*%
D21*
%TO.C,H2*%
X78400000Y3800000D03*
X77697056Y2102944D03*
X77697056Y5497056D03*
X76000000Y1400000D03*
D22*
X76000000Y3800000D03*
D21*
X76000000Y6200000D03*
X74302944Y2102944D03*
X74302944Y5497056D03*
X73600000Y3800000D03*
%TD*%
D15*
%TO.C,C10*%
X47540000Y6396075D03*
X47540000Y3271075D03*
%TD*%
D45*
%TO.C,D7*%
X7187500Y37191075D03*
X4212500Y37191075D03*
%TD*%
D43*
%TO.C,J9*%
X17570000Y31951075D03*
X17570000Y34491075D03*
X20110000Y31951075D03*
X20110000Y34491075D03*
X22650000Y31951075D03*
D44*
X22650000Y34491075D03*
%TD*%
D23*
%TO.C,R19*%
X68670000Y11071075D03*
X68670000Y7971075D03*
%TD*%
%TO.C,R2*%
X7035000Y26701075D03*
X7035000Y23601075D03*
%TD*%
%TO.C,R14*%
X62695000Y28271075D03*
X62695000Y25171075D03*
%TD*%
D20*
%TO.C,T2*%
X35240000Y50401075D03*
X35240000Y52941075D03*
X35240000Y55481075D03*
X42860000Y55481075D03*
X42860000Y52941075D03*
D40*
X42860000Y50401075D03*
%TD*%
D46*
%TO.C,U2*%
X21620000Y15946075D03*
D47*
X11600000Y8396075D03*
X11600000Y9666075D03*
X11600000Y10936075D03*
X11600000Y12206075D03*
X11600000Y13476075D03*
X11600000Y14746075D03*
X11600000Y16016075D03*
X11600000Y17286075D03*
X11600000Y18556075D03*
X11600000Y19826075D03*
X11600000Y21096075D03*
X11600000Y22366075D03*
X11600000Y23636075D03*
X11600000Y24906075D03*
D48*
X14880000Y26426075D03*
X16150000Y26426075D03*
X17420000Y26426075D03*
X18690000Y26426075D03*
X19960000Y26426075D03*
X21230000Y26436075D03*
X22500000Y26436075D03*
X23770000Y26436075D03*
X25040000Y26436075D03*
X26310000Y26436075D03*
D47*
X29600000Y24906075D03*
X29600000Y23636075D03*
X29600000Y22366075D03*
X29600000Y21096075D03*
X29600000Y19826075D03*
X29600000Y18556075D03*
X29600000Y17286075D03*
X29600000Y16016075D03*
X29600000Y14746075D03*
X29600000Y13476075D03*
X29600000Y12206075D03*
X29600000Y10936075D03*
X29600000Y9666075D03*
X29600000Y8396075D03*
%TD*%
D49*
%TO.C,U4*%
X33390000Y31456075D03*
X32110000Y31456075D03*
X30850000Y31456075D03*
X29580000Y31456075D03*
X29580000Y36996075D03*
X30850000Y36996075D03*
X32110000Y36996075D03*
X33390000Y36996075D03*
%TD*%
D26*
%TO.C,D8*%
X71425000Y45428575D03*
X71425000Y48403575D03*
%TD*%
D18*
%TO.C,C15*%
X35175000Y20603575D03*
X35175000Y23728575D03*
%TD*%
D17*
%TO.C,TP3*%
X69770000Y22196075D03*
%TD*%
D13*
%TO.C,R24*%
X73745000Y7971075D03*
X73745000Y11071075D03*
%TD*%
D23*
%TO.C,R41*%
X64950000Y55991075D03*
X64950000Y52891075D03*
%TD*%
D15*
%TO.C,C7*%
X76945000Y28146075D03*
X76945000Y25021075D03*
%TD*%
D50*
%TO.C,R13*%
X21980000Y84611075D03*
D51*
X37220000Y84611075D03*
%TD*%
D27*
%TO.C,Q4*%
X12790000Y51460000D03*
X12790000Y54000000D03*
D28*
X12790000Y56540000D03*
%TD*%
D23*
%TO.C,R15*%
X60245000Y28246075D03*
X60245000Y25146075D03*
%TD*%
D13*
%TO.C,R36*%
X53140000Y3271075D03*
X53140000Y6371075D03*
%TD*%
%TO.C,R35*%
X40500000Y3503575D03*
X40500000Y6603575D03*
%TD*%
%TO.C,R31*%
X27765000Y39406075D03*
X27765000Y42506075D03*
%TD*%
D52*
%TO.C,TH1*%
X40135000Y26958575D03*
D12*
X42675000Y26958575D03*
%TD*%
D14*
%TO.C,R30*%
X70280000Y15596075D03*
X72820000Y15596075D03*
X75360000Y15596075D03*
%TD*%
D37*
%TO.C,D2*%
X68100000Y38281075D03*
X68100000Y34901075D03*
%TD*%
D39*
%TO.C,Q6*%
X44550000Y64491075D03*
X45500000Y62491075D03*
X43600000Y62491075D03*
%TD*%
D20*
%TO.C,U13*%
X3670000Y53231075D03*
X3670000Y56731075D03*
%TD*%
D26*
%TO.C,D6*%
X71500000Y35291075D03*
X71500000Y38266075D03*
%TD*%
D23*
%TO.C,R18*%
X71420000Y28146075D03*
X71420000Y25046075D03*
%TD*%
D13*
%TO.C,R16*%
X71195000Y7946075D03*
X71195000Y11046075D03*
%TD*%
D19*
%TO.C,C4*%
X55262500Y62991075D03*
X52137500Y62991075D03*
%TD*%
D23*
%TO.C,R10*%
X59245000Y11021075D03*
X59245000Y7921075D03*
%TD*%
D18*
%TO.C,C3*%
X45000000Y80937500D03*
X45000000Y84062500D03*
%TD*%
G36*
X32371292Y59174160D02*
G01*
X32438293Y59154346D01*
X32483946Y59101453D01*
X32495052Y59050039D01*
X32485294Y49087401D01*
X32465544Y49020380D01*
X32412695Y48974677D01*
X32361693Y48963523D01*
X17089694Y48914322D01*
X17022592Y48933790D01*
X16976667Y48986446D01*
X16965295Y49038442D01*
X16975053Y59079802D01*
X16994803Y59146822D01*
X17047651Y59192525D01*
X17099293Y59203681D01*
X32371292Y59174160D01*
G37*
G36*
X31896118Y71451315D02*
G01*
X31963119Y71431501D01*
X32008772Y71378608D01*
X32019878Y71327194D01*
X32010120Y61364556D01*
X31990370Y61297535D01*
X31937521Y61251832D01*
X31886519Y61240678D01*
X16614520Y61191477D01*
X16547418Y61210945D01*
X16501493Y61263601D01*
X16490121Y61315597D01*
X16499879Y71356957D01*
X16519629Y71423977D01*
X16572477Y71469680D01*
X16624119Y71480836D01*
X31896118Y71451315D01*
G37*
M02*
