%TF.GenerationSoftware,KiCad,Pcbnew,9.0.0*%
%TF.CreationDate,2025-08-03T03:58:21+03:00*%
%TF.ProjectId,HOT_AIRGUN_EXTRADOPE-rounded,484f545f-4149-4524-9755-4e5f45585452,rev?*%
%TF.SameCoordinates,Original*%
%TF.FileFunction,Other,Comment*%
%FSLAX46Y46*%
G04 Gerber Fmt 4.6, Leading zero omitted, Abs format (unit mm)*
G04 Created by KiCad (PCBNEW 9.0.0) date 2025-08-03 03:58:21*
%MOMM*%
%LPD*%
G01*
G04 APERTURE LIST*
%ADD10C,0.150000*%
%ADD11C,0.300000*%
%ADD12C,0.200000*%
%ADD13C,0.400000*%
%ADD14C,0.500000*%
%ADD15C,0.700000*%
G04 APERTURE END LIST*
D10*
%TO.C,H1*%
X79200000Y85200000D02*
G75*
G02*
X72800000Y85200000I-3200000J0D01*
G01*
X72800000Y85200000D02*
G75*
G02*
X79200000Y85200000I3200000J0D01*
G01*
D11*
%TO.C,Q7*%
X60250000Y48531075D02*
G75*
G02*
X59950000Y48531075I-150000J0D01*
G01*
X59950000Y48531075D02*
G75*
G02*
X60250000Y48531075I150000J0D01*
G01*
%TO.C,U6*%
X76640000Y23201075D02*
G75*
G02*
X76340000Y23201075I-150000J0D01*
G01*
X76340000Y23201075D02*
G75*
G02*
X76640000Y23201075I150000J0D01*
G01*
D12*
%TO.C,U3*%
X33925000Y39256075D02*
G75*
G02*
X33725000Y39256075I-100000J0D01*
G01*
X33725000Y39256075D02*
G75*
G02*
X33925000Y39256075I100000J0D01*
G01*
D11*
%TO.C,Q9*%
X59900000Y59231075D02*
G75*
G02*
X59600000Y59231075I-150000J0D01*
G01*
X59600000Y59231075D02*
G75*
G02*
X59900000Y59231075I150000J0D01*
G01*
D13*
%TO.C,U1*%
X30080000Y79801075D02*
G75*
G02*
X29680000Y79801075I-200000J0D01*
G01*
X29680000Y79801075D02*
G75*
G02*
X30080000Y79801075I200000J0D01*
G01*
D12*
%TO.C,Q5*%
X43600000Y45291075D02*
G75*
G02*
X43400000Y45291075I-100000J0D01*
G01*
X43400000Y45291075D02*
G75*
G02*
X43600000Y45291075I100000J0D01*
G01*
D14*
%TO.C,T1*%
X43000000Y65531075D02*
G75*
G02*
X42500000Y65531075I-250000J0D01*
G01*
X42500000Y65531075D02*
G75*
G02*
X43000000Y65531075I250000J0D01*
G01*
D10*
%TO.C,H3*%
X7000000Y3800000D02*
G75*
G02*
X600000Y3800000I-3200000J0D01*
G01*
X600000Y3800000D02*
G75*
G02*
X7000000Y3800000I3200000J0D01*
G01*
D11*
%TO.C,U5*%
X60795005Y76141075D02*
G75*
G02*
X60495005Y76141075I-150000J0D01*
G01*
X60495005Y76141075D02*
G75*
G02*
X60795005Y76141075I150000J0D01*
G01*
%TO.C,Q8*%
X60325000Y38381075D02*
G75*
G02*
X60025000Y38381075I-150000J0D01*
G01*
X60025000Y38381075D02*
G75*
G02*
X60325000Y38381075I150000J0D01*
G01*
%TO.C,U8*%
X64755000Y23176075D02*
G75*
G02*
X64455000Y23176075I-150000J0D01*
G01*
X64455000Y23176075D02*
G75*
G02*
X64755000Y23176075I150000J0D01*
G01*
D10*
%TO.C,H2*%
X79200000Y3800000D02*
G75*
G02*
X72800000Y3800000I-3200000J0D01*
G01*
X72800000Y3800000D02*
G75*
G02*
X79200000Y3800000I3200000J0D01*
G01*
D14*
%TO.C,T2*%
X42950000Y49131075D02*
G75*
G02*
X42450000Y49131075I-250000J0D01*
G01*
X42450000Y49131075D02*
G75*
G02*
X42950000Y49131075I250000J0D01*
G01*
D15*
%TO.C,U2*%
X30400000Y8306075D02*
G75*
G02*
X29700000Y8306075I-350000J0D01*
G01*
X29700000Y8306075D02*
G75*
G02*
X30400000Y8306075I350000J0D01*
G01*
D11*
%TO.C,U4*%
X33540000Y37626075D02*
G75*
G02*
X33240000Y37626075I-150000J0D01*
G01*
X33240000Y37626075D02*
G75*
G02*
X33540000Y37626075I150000J0D01*
G01*
D12*
%TO.C,Q6*%
X43700000Y62041075D02*
G75*
G02*
X43500000Y62041075I-100000J0D01*
G01*
X43500000Y62041075D02*
G75*
G02*
X43700000Y62041075I100000J0D01*
G01*
%TD*%
M02*
